<mxfile host="app.diagrams.net" modified="2021-04-24T07:40:11.379Z" agent="5.0 (Windows NT 10.0; Win64; x64) AppleWebKit/537.36 (KHTML, like Gecko) Chrome/90.0.4430.85 Safari/537.36" etag="09wA5xt4o4Wi6Y_uYUEW" version="14.6.6" type="github">
  <diagram id="6AtGy4F1HXsovSDpXCBl" name="Page-1">
    <mxGraphModel dx="1182" dy="764" grid="1" gridSize="10" guides="1" tooltips="1" connect="1" arrows="1" fold="1" page="1" pageScale="1" pageWidth="850" pageHeight="1100" math="0" shadow="0">
      <root>
        <mxCell id="0" />
        <mxCell id="1" parent="0" />
        <mxCell id="kqUH0H59yNKH9I_MvsPW-1" value="" style="strokeWidth=1;shadow=0;dashed=0;align=center;html=1;shape=mxgraph.mockup.containers.browserWindow;rSize=0;strokeColor=#666666;strokeColor2=#008cff;strokeColor3=#c4c4c4;mainText=,;recursiveResize=0;" parent="1" vertex="1">
          <mxGeometry x="190" y="70" width="550" height="380" as="geometry" />
        </mxCell>
        <mxCell id="kqUH0H59yNKH9I_MvsPW-2" value="Page 1" style="strokeWidth=1;shadow=0;dashed=0;align=center;html=1;shape=mxgraph.mockup.containers.anchor;fontSize=17;fontColor=#666666;align=left;" parent="kqUH0H59yNKH9I_MvsPW-1" vertex="1">
          <mxGeometry x="60" y="12" width="110" height="26" as="geometry" />
        </mxCell>
        <mxCell id="kqUH0H59yNKH9I_MvsPW-3" value="https://www.myfavouritelinks.io" style="strokeWidth=1;shadow=0;dashed=0;align=center;html=1;shape=mxgraph.mockup.containers.anchor;rSize=0;fontSize=17;fontColor=#666666;align=left;" parent="kqUH0H59yNKH9I_MvsPW-1" vertex="1">
          <mxGeometry x="130" y="60" width="250" height="26" as="geometry" />
        </mxCell>
        <mxCell id="kqUH0H59yNKH9I_MvsPW-4" value="I miei siti preferiti" style="text;html=1;strokeColor=none;fillColor=none;align=left;verticalAlign=middle;whiteSpace=wrap;rounded=0;fontSize=18;" parent="kqUH0H59yNKH9I_MvsPW-1" vertex="1">
          <mxGeometry x="20" y="120" width="150" height="20" as="geometry" />
        </mxCell>
        <mxCell id="kqUH0H59yNKH9I_MvsPW-5" value="&lt;ol&gt;&lt;li&gt;&lt;u&gt;Draw.io&lt;/u&gt;&lt;/li&gt;&lt;li&gt;&lt;u&gt;GitHub&lt;/u&gt;&lt;/li&gt;&lt;li&gt;&lt;u&gt;thelazylama&lt;/u&gt;&lt;/li&gt;&lt;/ol&gt;" style="text;strokeColor=none;fillColor=none;html=1;whiteSpace=wrap;verticalAlign=middle;overflow=hidden;fontSize=18;align=left;" parent="kqUH0H59yNKH9I_MvsPW-1" vertex="1">
          <mxGeometry x="20" y="270" width="240" height="100" as="geometry" />
        </mxCell>
        <mxCell id="kqUH0H59yNKH9I_MvsPW-22" value="URL&amp;nbsp; &amp;nbsp; &amp;nbsp; &amp;nbsp; &amp;nbsp; &amp;nbsp; &amp;nbsp;" style="text;strokeColor=none;fillColor=none;align=center;verticalAlign=middle;rounded=0;fontSize=18;labelBorderColor=#000000;fontColor=#CCCCCC;whiteSpace=wrap;html=1;" parent="kqUH0H59yNKH9I_MvsPW-1" vertex="1">
          <mxGeometry x="17" y="150" width="130" height="20" as="geometry" />
        </mxCell>
        <mxCell id="kqUH0H59yNKH9I_MvsPW-23" value="&lt;div&gt;&lt;span&gt;titolo&amp;nbsp; &amp;nbsp; &amp;nbsp; &amp;nbsp; &amp;nbsp; &amp;nbsp; &amp;nbsp;&amp;nbsp;&lt;/span&gt;&lt;/div&gt;" style="text;strokeColor=none;fillColor=none;align=left;verticalAlign=middle;rounded=0;fontSize=18;labelBorderColor=#000000;fontColor=#CCCCCC;whiteSpace=wrap;html=1;" parent="kqUH0H59yNKH9I_MvsPW-1" vertex="1">
          <mxGeometry x="29" y="180" width="130" height="20" as="geometry" />
        </mxCell>
        <mxCell id="kqUH0H59yNKH9I_MvsPW-34" value="Aggiungi" style="rounded=1;html=1;shadow=0;dashed=0;whiteSpace=wrap;fontSize=13;fillColor=#E6E6E6;align=center;strokeColor=#E6E6E6;fontColor=#333333;" parent="kqUH0H59yNKH9I_MvsPW-1" vertex="1">
          <mxGeometry x="30" y="240" width="105.5" height="16.88" as="geometry" />
        </mxCell>
        <mxCell id="XqWEga-6Or8OFbZZcBXG-1" value="Categoria" style="strokeWidth=1;shadow=0;dashed=0;align=center;html=1;shape=mxgraph.mockup.forms.comboBox;strokeColor=#999999;fillColor=#ddeeff;align=left;fillColor2=#aaddff;mainText=;fontColor=#666666;fontSize=17;spacingLeft=3;" parent="kqUH0H59yNKH9I_MvsPW-1" vertex="1">
          <mxGeometry x="30" y="210" width="110" height="20" as="geometry" />
        </mxCell>
        <mxCell id="XqWEga-6Or8OFbZZcBXG-2" value="" style="shape=image;html=1;verticalAlign=top;verticalLabelPosition=bottom;labelBackgroundColor=#ffffff;imageAspect=0;aspect=fixed;image=https://cdn1.iconfinder.com/data/icons/line-free/24/Recycle_bin_-128.png" parent="kqUH0H59yNKH9I_MvsPW-1" vertex="1">
          <mxGeometry x="217" y="290" width="18" height="18" as="geometry" />
        </mxCell>
        <mxCell id="gyLtg1BJJ7LJL7fzIh0a-2" style="edgeStyle=orthogonalEdgeStyle;rounded=0;orthogonalLoop=1;jettySize=auto;html=1;" parent="1" source="gyLtg1BJJ7LJL7fzIh0a-1" edge="1">
          <mxGeometry relative="1" as="geometry">
            <mxPoint x="421" y="414" as="targetPoint" />
          </mxGeometry>
        </mxCell>
        <mxCell id="gyLtg1BJJ7LJL7fzIh0a-1" value="il cestino viene visualizzato quando si pasa con il mouse sulla lista" style="shape=note;whiteSpace=wrap;html=1;backgroundOutline=1;darkOpacity=0.05;fillColor=#f8cecc;strokeColor=#b85450;" parent="1" vertex="1">
          <mxGeometry x="380" y="510" width="90" height="130" as="geometry" />
        </mxCell>
        <mxCell id="gyLtg1BJJ7LJL7fzIh0a-6" style="edgeStyle=orthogonalEdgeStyle;rounded=0;orthogonalLoop=1;jettySize=auto;html=1;" parent="1" source="gyLtg1BJJ7LJL7fzIh0a-4" target="kqUH0H59yNKH9I_MvsPW-22" edge="1">
          <mxGeometry relative="1" as="geometry" />
        </mxCell>
        <mxCell id="gyLtg1BJJ7LJL7fzIh0a-4" value="non si puÃ² aggiungere un sito senza titolo o link" style="shape=note;whiteSpace=wrap;html=1;backgroundOutline=1;darkOpacity=0.05;fillColor=#f8cecc;strokeColor=#b85450;" parent="1" vertex="1">
          <mxGeometry x="50" y="230" width="80" height="120" as="geometry" />
        </mxCell>
        <mxCell id="mSLsCMkI4ZPH4KnEW1Df-2" style="edgeStyle=orthogonalEdgeStyle;rounded=0;orthogonalLoop=1;jettySize=auto;html=1;entryX=0;entryY=0.5;entryDx=0;entryDy=0;" edge="1" parent="1" source="gyLtg1BJJ7LJL7fzIh0a-7" target="kqUH0H59yNKH9I_MvsPW-34">
          <mxGeometry relative="1" as="geometry" />
        </mxCell>
        <mxCell id="gyLtg1BJJ7LJL7fzIh0a-7" value="quandosi preme su aggiungi, i campi si cancellano" style="shape=note;whiteSpace=wrap;html=1;backgroundOutline=1;darkOpacity=0.05;fillColor=#f8cecc;strokeColor=#b85450;" parent="1" vertex="1">
          <mxGeometry x="80" y="430" width="80" height="130" as="geometry" />
        </mxCell>
      </root>
    </mxGraphModel>
  </diagram>
</mxfile>
